<svg aria-hidden="true" style="position: absolute; width: 0; height: 0; overflow: hidden;" version="1.1" xmlns="http://www.w3.org/2000/svg" xmlns:xlink="http://www.w3.org/1999/xlink">
  <defs>
    <symbol id="mobile" viewBox="0 0 32 32">
      <path d="M22.649 2.286h-13.299c-1.377 0-2.494 1.152-2.494 2.571v22.286c0 1.42 1.117 2.571 2.494 2.571h13.299c1.377 0 2.494-1.152 2.494-2.571v-22.286c0-1.42-1.117-2.571-2.494-2.571zM18.494 26.238c0 0.52-0.374 0.905-0.831 0.905h-3.371c-0.41 0-0.784-0.386-0.784-0.857s0.374-0.857 0.831-0.857h3.325c0.457 0 0.831 0.386 0.831 0.809zM21.818 22.857h-11.636v-17.143h11.636v17.143z"></path>
    </symbol>
    <symbol id="twitter" viewBox="0 0 32 32">
      <path stroke-linejoin="round" stroke-linecap="round" stroke-miterlimit="4" stroke-width="2.6667" d="M30.667 4.013c-1.277 0.901-2.691 1.589-4.187 2.040-0.803-0.923-1.87-1.578-3.057-1.875s-2.437-0.222-3.58 0.214c-1.143 0.436-2.125 1.213-2.812 2.226s-1.047 2.211-1.031 3.435v1.333c-2.343 0.061-4.665-0.459-6.759-1.513s-3.894-2.609-5.241-4.527c0 0-5.333 12 6.667 17.333-2.746 1.864-6.017 2.799-9.333 2.667 12 6.667 26.667 0 26.667-15.333-0.001-0.371-0.037-0.742-0.107-1.107 1.361-1.342 2.321-3.036 2.773-4.893v0z"></path>
    </symbol>
    <symbol id="facebook" viewBox="0 0 32 32">
      <path stroke-linejoin="round" stroke-linecap="round" stroke-miterlimit="4" stroke-width="2.6667" d="M24 2.667h-4c-1.768 0-3.464 0.702-4.714 1.953s-1.953 2.946-1.953 4.714v4h-4v5.333h4v10.667h5.333v-10.667h4l1.333-5.333h-5.333v-4c0-0.354 0.141-0.693 0.391-0.943s0.589-0.391 0.943-0.391h4v-5.333z"></path>
    </symbol>
    <symbol id="instagram" viewBox="0 0 32 32">
      <path stroke-linejoin="round" stroke-linecap="round" stroke-miterlimit="4" stroke-width="2.6667" d="M22.667 2.667h-13.333c-3.682 0-6.667 2.985-6.667 6.667v13.333c0 3.682 2.985 6.667 6.667 6.667h13.333c3.682 0 6.667-2.985 6.667-6.667v-13.333c0-3.682-2.985-6.667-6.667-6.667z"></path>
      <path stroke-linejoin="round" stroke-linecap="round" stroke-miterlimit="4" stroke-width="2.6667" d="M21.333 15.16c0.165 1.11-0.025 2.243-0.542 3.239s-1.334 1.803-2.336 2.308c-1.002 0.504-2.138 0.68-3.245 0.502s-2.131-0.701-2.924-1.494-1.316-1.816-1.494-2.924c-0.178-1.107-0.003-2.243 0.502-3.245s1.312-1.82 2.307-2.336c0.996-0.517 2.129-0.706 3.239-0.542 1.132 0.168 2.18 0.695 2.989 1.504s1.337 1.857 1.505 2.989z"></path>
      <path stroke-linejoin="round" stroke-linecap="round" stroke-miterlimit="4" stroke-width="2.6667" d="M23.333 8.667h0.013"></path>
    </symbol>
    <symbol id="star-outlined" viewBox="0 0 32 32">
      <path d="M8.17 19.52l-2.293 9.778c-0.071 0.296-0.050 0.606 0.061 0.89s0.306 0.529 0.56 0.701c0.254 0.173 0.555 0.266 0.864 0.268s0.611-0.088 0.867-0.258l8.38-5.501 8.38 5.501c0.262 0.171 0.571 0.26 0.886 0.253s0.62-0.108 0.874-0.291c0.254-0.182 0.446-0.437 0.549-0.73s0.112-0.61 0.026-0.908l-2.815-9.699 6.981-6.186c0.224-0.198 0.383-0.457 0.459-0.743s0.065-0.589-0.032-0.87c-0.097-0.281-0.275-0.527-0.512-0.709s-0.524-0.291-0.824-0.315l-8.774-0.688-3.797-8.276c-0.121-0.266-0.318-0.493-0.567-0.652s-0.539-0.243-0.835-0.243c-0.296 0-0.587 0.085-0.835 0.243s-0.446 0.385-0.567 0.652l-3.797 8.276-8.774 0.687c-0.295 0.023-0.577 0.129-0.812 0.306s-0.414 0.416-0.514 0.69c-0.101 0.274-0.119 0.57-0.053 0.854s0.214 0.543 0.426 0.746l6.485 6.224zM12.561 12.964c0.275-0.021 0.539-0.115 0.764-0.271s0.404-0.369 0.517-0.617l2.769-6.033 2.769 6.033c0.113 0.248 0.291 0.461 0.517 0.617s0.489 0.25 0.764 0.271l6.113 0.477-5.034 4.462c-0.437 0.388-0.611 0.985-0.451 1.543l1.928 6.645-5.75-3.775c-0.252-0.167-0.549-0.256-0.853-0.256s-0.601 0.089-0.853 0.256l-6.008 3.945 1.616-6.889c0.059-0.253 0.051-0.518-0.023-0.767s-0.213-0.476-0.402-0.658l-4.676-4.489 6.295-0.494z"></path>
    </symbol>
    <symbol id="star" viewBox="0 0 32 32">
      <path d="M30.432 11.938c-0.092-0.267-0.261-0.501-0.487-0.674s-0.497-0.277-0.782-0.3l-8.335-0.652-3.607-7.862c-0.115-0.253-0.302-0.468-0.538-0.619s-0.512-0.231-0.793-0.232c-0.282-0-0.557 0.080-0.794 0.231s-0.424 0.366-0.539 0.619l-3.607 7.864-8.335 0.652c-0.28 0.022-0.548 0.123-0.771 0.29s-0.393 0.395-0.488 0.655c-0.095 0.26-0.113 0.542-0.050 0.812s0.203 0.516 0.404 0.709l6.16 5.913-2.178 9.289c-0.066 0.281-0.045 0.575 0.061 0.844s0.291 0.501 0.532 0.665c0.241 0.164 0.527 0.253 0.82 0.255s0.58-0.082 0.824-0.243l7.961-5.226 7.961 5.226c0.249 0.163 0.543 0.247 0.842 0.24s0.588-0.103 0.83-0.276 0.423-0.416 0.521-0.694c0.098-0.278 0.107-0.579 0.025-0.862l-2.674-9.214 6.632-5.877c0.434-0.386 0.594-0.988 0.406-1.533z"></path>
    </symbol>
    <symbol id="tick" viewBox="0 0 32 32">
      <path d="M29.767 5.156c-0.589-0.601-1.544-0.601-2.133 0l-18.075 18.425-6.948-7.082c-0.589-0.601-1.544-0.601-2.134 0s-0.589 1.574 0 2.175l8.014 8.17c0.589 0.6 1.545 0.6 2.134 0l19.142-19.513c0.589-0.601 0.589-1.574 0-2.175z"></path>
    </symbol>
    <symbol id="clock" viewBox="0 0 32 32">
      <path d="M26.487 2.689h1.614c0.302 0 0.538-0.235 0.538-0.538v-1.076c0-0.303-0.235-0.538-0.538-0.538h-24.74c-0.303 0-0.538 0.235-0.538 0.538v1.076c0 0.303 0.235 0.538 0.538 0.538h1.613c0 6.219 2.975 10.723 6.269 12.908-3.294 2.185-6.269 6.689-6.269 12.908h-1.613c-0.303 0-0.538 0.235-0.538 0.538v1.076c0 0.302 0.235 0.538 0.538 0.538h24.74c0.302 0 0.538-0.235 0.538-0.538v-1.076c0-0.302-0.235-0.538-0.538-0.538h-1.614c0-6.219-2.975-10.723-6.269-12.908 3.294-2.185 6.269-6.689 6.269-12.908zM24.336 2.689c0 2.454-0.555 4.622-1.429 6.454h-14.353c-0.874-1.832-1.429-4-1.429-6.454h17.21zM23.378 23.126h-15.294c1.244-3.244 3.479-5.546 5.714-6.454h3.866c2.235 0.908 4.471 3.21 5.714 6.454z"></path>
    </symbol>
    <symbol id="heart" viewBox="0 0 32 32">
      <path d="M16 29.286c0.286 0 0.571-0.107 0.786-0.322l11.125-10.714c0.161-0.161 4.089-3.75 4.089-8.036 0-5.232-3.196-8.357-8.536-8.357-3.125 0-6.053 2.464-7.464 3.857-1.411-1.393-4.339-3.857-7.464-3.857-5.339 0-8.536 3.125-8.536 8.357 0 4.286 3.929 7.875 4.071 8l11.143 10.75c0.214 0.214 0.5 0.322 0.786 0.322z"></path>
    </symbol>
    <symbol id="line" viewBox="0 0 32 32">
      <path d="M16.857 13.587l2.079 0.968 3.095-0.921v-2.159c0-3.667-3.095-6.603-6.794-6.603-3.683 0-6.794 2.921-6.794 6.556v9.841c0 0.905-0.73 1.619-1.619 1.619s-1.619-0.714-1.619-1.619v-4.159h-5.206c0 4.175 0 4.222 0 4.222 0 3.762 3.048 6.81 6.81 6.81 3.73 0 6.809-3 6.809-6.714v-9.714c0-0.889 0.73-1.619 1.619-1.619s1.619 0.73 1.619 1.619v1.873zM25.27 17.111v4.365c0 0.889-0.73 1.603-1.619 1.603s-1.619-0.714-1.619-1.603v-4.286l-3.095 0.921-2.079-0.968v4.254c0 3.73 3.064 6.746 6.81 6.746 3.762 0 6.81-3.048 6.81-6.81 0 0 0-0.048 0-4.222h-5.206z"></path>
    </symbol>
    <symbol id="arrow" viewBox="0 0 32 32">
      <path d="M24.689 18.067l-17.21-17.21c-0.202-0.219-0.471-0.319-0.756-0.319-0.134 0-0.286 0.034-0.403 0.084-0.403 0.168-0.672 0.555-0.672 0.992v25.277c0 0.437 0.269 0.824 0.672 0.992 0.118 0.050 0.269 0.084 0.403 0.084 0.286 0 0.555-0.118 0.756-0.319l5.244-5.244 3.21 7.597c0.235 0.538 0.857 0.807 1.412 0.571l2.975-1.261c0.538-0.235 0.807-0.857 0.571-1.412l-3.378-8h6.42c0.437 0 0.824-0.269 0.992-0.672 0.168-0.387 0.084-0.857-0.235-1.16z"></path>
    </symbol>
    <symbol id="triangle" viewBox="0 0 32 32">
      <path d="M27.866 12.891c2.441 1.354 2.441 4.864 0 6.218l-21.155 11.739c-2.37 1.315-5.281-0.399-5.281-3.109v-23.477c0-2.71 2.911-4.424 5.281-3.109l21.155 11.739z"></path>
    </symbol>
  </defs>
</svg>